{
  "accessors": [
    {
      "bufferView": 2,
      "componentType": 5126,
      "count": 1087,
      "max": [
        1.0000005960464478,
        1.0,
        1.000001072883606
      ],
      "min": [
        -1.000000238418579,
        -1.0,
        5.924609922658419e-07
      ],
      "type": "VEC3"
    },
    {
      "bufferView": 2,
      "byteOffset": 13044,
      "componentType": 5126,
      "count": 1087,
      "max": [
        0.9987955093383789,
        0.9995097517967224,
        1.0
      ],
      "min": [
        -0.9987955093383789,
        -0.9995097517967224,
        0.004889683332294226
      ],
      "type": "VEC3"
    },
    {
      "bufferView": 1,
      "componentType": 5126,
      "count": 1087,
      "max": [
        0.4999997913837433,
        1.0
      ],
      "min": [
        0.0,
        0.0
      ],
      "type": "VEC2"
    },
    {
      "bufferView": 0,
      "componentType": 5125,
      "count": 5952,
      "type": "SCALAR"
    },
    {
      "bufferView": 2,
      "byteOffset": 26088,
      "componentType": 5126,
      "count": 1215,
      "max": [
        1.0000005960464478,
        1.0,
        0.9468066692352295
      ],
      "min": [
        -1.000000238418579,
        -1.0,
        -2.462834345351439e-07
      ],
      "type": "VEC3"
    },
    {
      "bufferView": 2,
      "byteOffset": 40668,
      "componentType": 5126,
      "count": 1215,
      "max": [
        0.9987954497337341,
        0.9995098114013672,
        1.0
      ],
      "min": [
        -0.9987955093383789,
        -0.9995097517967224,
        -1.0
      ],
      "type": "VEC3"
    },
    {
      "bufferView": 1,
      "byteOffset": 8696,
      "componentType": 5126,
      "count": 1215,
      "max": [
        0.844242513179779,
        1.0
      ],
      "min": [
        0.0,
        0.0
      ],
      "type": "VEC2"
    },
    {
      "bufferView": 0,
      "byteOffset": 23808,
      "componentType": 5125,
      "count": 6336,
      "type": "SCALAR"
    },
    {
      "bufferView": 2,
      "byteOffset": 55248,
      "componentType": 5126,
      "count": 2302,
      "max": [
        0.946806788444519,
        0.9468069076538086,
        0.9468066692352295
      ],
      "min": [
        -0.9468065500259399,
        -0.9468069076538086,
        -2.462834345351439e-07
      ],
      "type": "VEC3"
    },
    {
      "bufferView": 2,
      "byteOffset": 82872,
      "componentType": 5126,
      "count": 2302,
      "max": [
        0.9987955689430237,
        0.9995098114013672,
        1.0
      ],
      "min": [
        -0.9987955689430237,
        -0.9995098114013672,
        -1.0
      ],
      "type": "VEC3"
    },
    {
      "bufferView": 1,
      "byteOffset": 18416,
      "componentType": 5126,
      "count": 2302,
      "max": [
        1.5671957731246948,
        4.789933681488037
      ],
      "min": [
        -3.7899341583251953,
        -3.789933681488037
      ],
      "type": "VEC2"
    },
    {
      "bufferView": 0,
      "byteOffset": 49152,
      "componentType": 5125,
      "count": 12288,
      "type": "SCALAR"
    },
    {
      "bufferView": 2,
      "byteOffset": 110496,
      "componentType": 5126,
      "count": 1087,
      "max": [
        1.000000238418579,
        1.0,
        -5.1914344112447e-07
      ],
      "min": [
        -1.0000005960464478,
        -1.0,
        -1.000001072883606
      ],
      "type": "VEC3"
    },
    {
      "bufferView": 2,
      "byteOffset": 123540,
      "componentType": 5126,
      "count": 1087,
      "max": [
        0.9987955093383789,
        0.9995097517967224,
        -0.004889682400971651
      ],
      "min": [
        -0.9987955093383789,
        -0.9995098114013672,
        -1.0
      ],
      "type": "VEC3"
    },
    {
      "bufferView": 1,
      "byteOffset": 36832,
      "componentType": 5126,
      "count": 1087,
      "max": [
        1.0001201629638672,
        1.0
      ],
      "min": [
        0.5001202821731567,
        0.0
      ],
      "type": "VEC2"
    },
    {
      "bufferView": 0,
      "byteOffset": 98304,
      "componentType": 5125,
      "count": 5952,
      "type": "SCALAR"
    },
    {
      "bufferView": 2,
      "byteOffset": 136584,
      "componentType": 5126,
      "count": 1215,
      "max": [
        1.000000238418579,
        1.0,
        1.635109754261066e-07
      ],
      "min": [
        -1.0000005960464478,
        -1.0,
        -0.9468066692352295
      ],
      "type": "VEC3"
    },
    {
      "bufferView": 2,
      "byteOffset": 151164,
      "componentType": 5126,
      "count": 1215,
      "max": [
        0.9987955093383789,
        0.9995098114013672,
        1.0
      ],
      "min": [
        -0.9987954497337341,
        -0.9995097517967224,
        -1.0
      ],
      "type": "VEC3"
    },
    {
      "bufferView": 1,
      "byteOffset": 45528,
      "componentType": 5126,
      "count": 1215,
      "max": [
        0.9999998807907104,
        1.0
      ],
      "min": [
        0.155757337808609,
        0.0
      ],
      "type": "VEC2"
    },
    {
      "bufferView": 0,
      "byteOffset": 122112,
      "componentType": 5125,
      "count": 6336,
      "type": "SCALAR"
    },
    {
      "bufferView": 2,
      "byteOffset": 165744,
      "componentType": 5126,
      "count": 2302,
      "max": [
        0.9468065500259399,
        0.9468069076538086,
        1.8596178108509775e-07
      ],
      "min": [
        -0.946806788444519,
        -0.9468069076538086,
        -0.9468066692352295
      ],
      "type": "VEC3"
    },
    {
      "bufferView": 2,
      "byteOffset": 193368,
      "componentType": 5126,
      "count": 2302,
      "max": [
        0.9987955689430237,
        0.9995097517967224,
        1.0
      ],
      "min": [
        -0.9987955689430237,
        -0.9995097517967224,
        -1.0
      ],
      "type": "VEC3"
    },
    {
      "bufferView": 1,
      "byteOffset": 55248,
      "componentType": 5126,
      "count": 2302,
      "max": [
        1.5671957731246948,
        4.789933681488037
      ],
      "min": [
        -3.7899341583251953,
        -3.789933681488037
      ],
      "type": "VEC2"
    },
    {
      "bufferView": 0,
      "byteOffset": 147456,
      "componentType": 5125,
      "count": 12288,
      "type": "SCALAR"
    },
    {
      "bufferView": 2,
      "byteOffset": 220992,
      "componentType": 5126,
      "count": 5276,
      "max": [
        0.9999996423721313,
        1.0,
        0.009607304818928242
      ],
      "min": [
        -0.9999998807907104,
        -1.0,
        -0.9999997615814209
      ],
      "type": "VEC3"
    },
    {
      "bufferView": 2,
      "byteOffset": 284304,
      "componentType": 5126,
      "count": 5276,
      "max": [
        0.9975952506065369,
        0.9987931251525879,
        1.0
      ],
      "min": [
        -0.9975952506065369,
        -0.9987928867340088,
        -1.0
      ],
      "type": "VEC3"
    },
    {
      "bufferView": 1,
      "byteOffset": 73664,
      "componentType": 5126,
      "count": 5276,
      "max": [
        0.8260213732719421,
        1.5480395555496216
      ],
      "min": [
        -0.5480396151542664,
        -0.5480395555496216
      ],
      "type": "VEC2"
    },
    {
      "bufferView": 0,
      "byteOffset": 196608,
      "componentType": 5125,
      "count": 12297,
      "type": "SCALAR"
    },
    {
      "bufferView": 2,
      "byteOffset": 347616,
      "componentType": 5126,
      "count": 5276,
      "max": [
        0.9999998807907104,
        1.0,
        0.9999997615814209
      ],
      "min": [
        -0.9999996423721313,
        -1.0,
        -0.00960729643702507
      ],
      "type": "VEC3"
    },
    {
      "bufferView": 2,
      "byteOffset": 410928,
      "componentType": 5126,
      "count": 5276,
      "max": [
        0.9975952506065369,
        0.9987928867340088,
        1.0
      ],
      "min": [
        -0.9975952506065369,
        -0.9987930059432983,
        -1.0
      ],
      "type": "VEC3"
    },
    {
      "bufferView": 1,
      "byteOffset": 115872,
      "componentType": 5126,
      "count": 5276,
      "max": [
        0.8260213732719421,
        1.5480395555496216
      ],
      "min": [
        -0.5480396151542664,
        -0.5480395555496216
      ],
      "type": "VEC2"
    },
    {
      "bufferView": 0,
      "byteOffset": 245796,
      "componentType": 5125,
      "count": 12297,
      "type": "SCALAR"
    },
    {
      "bufferView": 2,
      "byteOffset": 474240,
      "componentType": 5126,
      "count": 2143,
      "max": [
        0.9999998807907104,
        1.0,
        0.9999997615814209
      ],
      "min": [
        -0.9999996423721313,
        -1.0,
        -1.0
      ],
      "type": "VEC3"
    },
    {
      "bufferView": 2,
      "byteOffset": 499956,
      "componentType": 5126,
      "count": 2143,
      "max": [
        1.0,
        1.0,
        1.0
      ],
      "min": [
        -1.0,
        -1.0,
        -1.0
      ],
      "type": "VEC3"
    },
    {
      "bufferView": 1,
      "byteOffset": 158080,
      "componentType": 5126,
      "count": 2143,
      "max": [
        1.0000001192092896,
        1.0
      ],
      "min": [
        0.0,
        0.0
      ],
      "type": "VEC2"
    },
    {
      "bufferView": 0,
      "byteOffset": 294984,
      "componentType": 5125,
      "count": 11904,
      "type": "SCALAR"
    },
    {
      "bufferView": 3,
      "componentType": 5126,
      "count": 61,
      "max": [
        10.416666984558105
      ],
      "min": [
        0.0416666679084301
      ],
      "type": "SCALAR"
    },
    {
      "bufferView": 4,
      "componentType": 5126,
      "count": 61,
      "max": [
        0.0,
        0.0,
        -0.0
      ],
      "min": [
        0.0,
        0.0,
        -0.5377150774002075
      ],
      "type": "VEC3"
    },
    {
      "bufferView": 3,
      "byteOffset": 244,
      "componentType": 5126,
      "count": 61,
      "max": [
        10.416666984558105
      ],
      "min": [
        0.0416666679084301
      ],
      "type": "SCALAR"
    },
    {
      "bufferView": 4,
      "byteOffset": 732,
      "componentType": 5126,
      "count": 61,
      "max": [
        0.0,
        0.0,
        -0.0
      ],
      "min": [
        0.0,
        0.0,
        -1.6670944690704346
      ],
      "type": "VEC3"
    },
    {
      "bufferView": 3,
      "byteOffset": 488,
      "componentType": 5126,
      "count": 61,
      "max": [
        10.416666984558105
      ],
      "min": [
        0.0416666679084301
      ],
      "type": "SCALAR"
    },
    {
      "bufferView": 4,
      "byteOffset": 1464,
      "componentType": 5126,
      "count": 61,
      "max": [
        0.0,
        0.0,
        -0.0
      ],
      "min": [
        0.0,
        0.0,
        -1.0699156522750854
      ],
      "type": "VEC3"
    },
    {
      "bufferView": 3,
      "byteOffset": 732,
      "componentType": 5126,
      "count": 61,
      "max": [
        10.416666984558105
      ],
      "min": [
        0.0416666679084301
      ],
      "type": "SCALAR"
    },
    {
      "bufferView": 4,
      "byteOffset": 2196,
      "componentType": 5126,
      "count": 61,
      "max": [
        0.0,
        0.0,
        -0.0
      ],
      "min": [
        0.0,
        0.0,
        -1.385074257850647
      ],
      "type": "VEC3"
    }
  ],
  "animations": [
    {
      "channels": [
        {
          "sampler": 0,
          "target": {
            "node": 6,
            "path": "translation"
          }
        },
        {
          "sampler": 1,
          "target": {
            "node": 8,
            "path": "translation"
          }
        },
        {
          "sampler": 2,
          "target": {
            "node": 15,
            "path": "translation"
          }
        },
        {
          "sampler": 3,
          "target": {
            "node": 17,
            "path": "translation"
          }
        }
      ],
      "name": "Animation",
      "samplers": [
        {
          "input": 36,
          "interpolation": "LINEAR",
          "output": 37
        },
        {
          "input": 38,
          "interpolation": "LINEAR",
          "output": 39
        },
        {
          "input": 40,
          "interpolation": "LINEAR",
          "output": 41
        },
        {
          "input": 42,
          "interpolation": "LINEAR",
          "output": 43
        }
      ]
    }
  ],
  "asset": {
    "extras": {
      "author": "person99 (https://sketchfab.com/person99)",
      "license": "CC-BY-NC-ND-4.0 (http://creativecommons.org/licenses/by-nc-nd/4.0/)",
      "source": "https://sketchfab.com/3d-models/earths-interior-4fa1ee1a6fa246d8acf56bc400f1bf5f",
      "title": "Earth's Interior"
    },
    "generator": "Sketchfab-15.14.0",
    "version": "2.0"
  },
  "bufferViews": [
    {
      "buffer": 0,
      "byteLength": 342600,
      "name": "floatBufferViews",
      "target": 34963
    },
    {
      "buffer": 0,
      "byteLength": 175224,
      "byteOffset": 342600,
      "byteStride": 8,
      "name": "floatBufferViews",
      "target": 34962
    },
    {
      "buffer": 0,
      "byteLength": 525672,
      "byteOffset": 517824,
      "byteStride": 12,
      "name": "floatBufferViews",
      "target": 34962
    },
    {
      "buffer": 0,
      "byteLength": 976,
      "byteOffset": 1043496,
      "name": "floatBufferViews"
    },
    {
      "buffer": 0,
      "byteLength": 2928,
      "byteOffset": 1044472,
      "byteStride": 12,
      "name": "floatBufferViews"
    }
  ],
  "buffers": [
    {
      "byteLength": 1047400,
      "uri": "scene.bin"
    }
  ],
  "extensionsUsed": [
    "KHR_materials_specular",
    "KHR_materials_emissive_strength"
  ],
  "images": [
    {
      "uri": "textures/Surface_baseColor.jpeg"
    },
    {
      "uri": "textures/Surface_specularf0.png"
    },
    {
      "uri": "textures/Inner_Crust_baseColor.jpeg"
    },
    {
      "uri": "textures/Mantle_baseColor.jpeg"
    },
    {
      "uri": "textures/Outer_Core_baseColor.png"
    }
  ],
  "materials": [
    {
      "doubleSided": true,
      "extensions": {
        "KHR_materials_specular": {
          "specularColorFactor": [
            1.0,
            1.0,
            1.0
          ],
          "specularFactor": 1.0,
          "specularTexture": {
            "index": 1
          }
        }
      },
      "name": "Surface",
      "pbrMetallicRoughness": {
        "baseColorTexture": {
          "index": 0
        },
        "metallicFactor": 0.0,
        "roughnessFactor": 0.5
      }
    },
    {
      "doubleSided": true,
      "extensions": {
        "KHR_materials_specular": {
          "specularColorFactor": [
            1.0,
            1.0,
            1.0
          ],
          "specularFactor": 0.12943106470305707
        }
      },
      "name": "Inner_Crust",
      "pbrMetallicRoughness": {
        "baseColorTexture": {
          "index": 2
        },
        "metallicFactor": 0.6721058902050312,
        "roughnessFactor": 0.877273
      }
    },
    {
      "doubleSided": true,
      "emissiveFactor": [
        1.0,
        1.0,
        1.0
      ],
      "emissiveTexture": {
        "index": 3
      },
      "extensions": {
        "KHR_materials_emissive_strength": {
          "emissiveStrength": 2.417086148069138
        }
      },
      "name": "Mantle",
      "pbrMetallicRoughness": {
        "baseColorFactor": [
          0.952799765464673,
          0.952799765464673,
          0.952799765464673,
          1.0
        ],
        "baseColorTexture": {
          "index": 3
        },
        "metallicFactor": 0.9652750488095461,
        "roughnessFactor": 0.5723036234460475
      }
    },
    {
      "doubleSided": true,
      "emissiveFactor": [
        1.0,
        1.0,
        1.0
      ],
      "emissiveTexture": {
        "index": 4
      },
      "extensions": {
        "KHR_materials_emissive_strength": {
          "emissiveStrength": 1.481439897203665
        }
      },
      "name": "Outer_Core",
      "pbrMetallicRoughness": {
        "baseColorTexture": {
          "index": 4
        },
        "roughnessFactor": 0.8966609904127447
      }
    },
    {
      "doubleSided": true,
      "emissiveFactor": [
        1.0,
        0.8962693533742668,
        0.08437621154414879
      ],
      "extensions": {
        "KHR_materials_emissive_strength": {
          "emissiveStrength": 6.159671151531029
        }
      },
      "name": "Inner_Core",
      "pbrMetallicRoughness": {
        "baseColorFactor": [
          1.0,
          0.8944143341860944,
          0.0851527774837633,
          1.0
        ]
      }
    }
  ],
  "meshes": [
    {
      "name": "Object_0",
      "primitives": [
        {
          "attributes": {
            "NORMAL": 1,
            "POSITION": 0,
            "TEXCOORD_0": 2
          },
          "indices": 3,
          "material": 0,
          "mode": 4
        }
      ]
    },
    {
      "name": "Object_1",
      "primitives": [
        {
          "attributes": {
            "NORMAL": 5,
            "POSITION": 4,
            "TEXCOORD_0": 6
          },
          "indices": 7,
          "material": 1,
          "mode": 4
        }
      ]
    },
    {
      "name": "Object_2",
      "primitives": [
        {
          "attributes": {
            "NORMAL": 9,
            "POSITION": 8,
            "TEXCOORD_0": 10
          },
          "indices": 11,
          "material": 2,
          "mode": 4
        }
      ]
    },
    {
      "name": "Object_3",
      "primitives": [
        {
          "attributes": {
            "NORMAL": 13,
            "POSITION": 12,
            "TEXCOORD_0": 14
          },
          "indices": 15,
          "material": 0,
          "mode": 4
        }
      ]
    },
    {
      "name": "Object_4",
      "primitives": [
        {
          "attributes": {
            "NORMAL": 17,
            "POSITION": 16,
            "TEXCOORD_0": 18
          },
          "indices": 19,
          "material": 1,
          "mode": 4
        }
      ]
    },
    {
      "name": "Object_5",
      "primitives": [
        {
          "attributes": {
            "NORMAL": 21,
            "POSITION": 20,
            "TEXCOORD_0": 22
          },
          "indices": 23,
          "material": 2,
          "mode": 4
        }
      ]
    },
    {
      "name": "Object_6",
      "primitives": [
        {
          "attributes": {
            "NORMAL": 25,
            "POSITION": 24,
            "TEXCOORD_0": 26
          },
          "indices": 27,
          "material": 3,
          "mode": 4
        }
      ]
    },
    {
      "name": "Object_7",
      "primitives": [
        {
          "attributes": {
            "NORMAL": 29,
            "POSITION": 28,
            "TEXCOORD_0": 30
          },
          "indices": 31,
          "material": 3,
          "mode": 4
        }
      ]
    },
    {
      "name": "Object_8",
      "primitives": [
        {
          "attributes": {
            "NORMAL": 33,
            "POSITION": 32,
            "TEXCOORD_0": 34
          },
          "indices": 35,
          "material": 4,
          "mode": 4
        }
      ]
    }
  ],
  "nodes": [
    {
      "children": [
        1
      ],
      "matrix": [
        0.999988853931427,
        -6.803368218756234e-19,
        0.0047225248999893665,
        0.0,
        0.0047225248999893665,
        1.2731032252174222e-16,
        -0.999988853931427,
        0.0,
        7.91030945703385e-20,
        1.0,
        1.2731210923186534e-16,
        0.0,
        0.0,
        0.0,
        0.0,
        1.0
      ],
      "name": "Sketchfab_model"
    },
    {
      "children": [
        2
      ],
      "name": "root"
    },
    {
      "children": [
        3,
        6,
        8,
        15,
        17
      ],
      "matrix": [
        1.0,
        0.0,
        0.0,
        0.0,
        0.0,
        2.220446049250313e-16,
        1.0,
        0.0,
        0.0,
        -1.0,
        2.220446049250313e-16,
        0.0,
        0.0,
        0.0,
        0.0,
        1.0
      ],
      "name": "GLTF_SceneRootNode"
    },
    {
      "children": [
        4,
        5
      ],
      "name": "Crust_2"
    },
    {
      "mesh": 0,
      "name": "Object_4"
    },
    {
      "mesh": 1,
      "name": "Object_5"
    },
    {
      "children": [
        7
      ],
      "name": "Mantle_3"
    },
    {
      "mesh": 2,
      "name": "Object_7"
    },
    {
      "children": [
        9,
        10,
        11,
        13
      ],
      "name": "Crust 2_6"
    },
    {
      "mesh": 3,
      "name": "Object_9"
    },
    {
      "mesh": 4,
      "name": "Object_10"
    },
    {
      "children": [
        12
      ],
      "name": "Mantle 2_4"
    },
    {
      "mesh": 5,
      "name": "Object_12"
    },
    {
      "children": [
        14
      ],
      "matrix": [
        0.3906921148300171,
        0.0,
        0.0,
        0.0,
        0.0,
        0.3906921148300171,
        0.0,
        0.0,
        0.0,
        0.0,
        0.3906921148300171,
        0.0,
        0.0,
        0.0,
        0.0,
        1.0
      ],
      "name": "Outer Core 2_5"
    },
    {
      "mesh": 6,
      "name": "Object_14"
    },
    {
      "children": [
        16
      ],
      "name": "Outer Core_7",
      "scale": [
        0.3906921148300171,
        0.3906921148300171,
        0.3906921148300171
      ]
    },
    {
      "mesh": 7,
      "name": "Object_16"
    },
    {
      "children": [
        18
      ],
      "name": "Inner Core_8",
      "scale": [
        0.16601867973804474,
        0.16601867973804474,
        0.16601867973804474
      ]
    },
    {
      "mesh": 8,
      "name": "Object_18"
    }
  ],
  "samplers": [
    {
      "magFilter": 9729,
      "minFilter": 9987,
      "wrapS": 10497,
      "wrapT": 10497
    }
  ],
  "scene": 0,
  "scenes": [
    {
      "name": "Sketchfab_Scene",
      "nodes": [
        0
      ]
    }
  ],
  "textures": [
    {
      "sampler": 0,
      "source": 0
    },
    {
      "sampler": 0,
      "source": 1
    },
    {
      "sampler": 0,
      "source": 2
    },
    {
      "sampler": 0,
      "source": 3
    },
    {
      "sampler": 0,
      "source": 4
    }
  ]
}
